<!-- <svg xmlns="http://www.w3.org/2000/svg" viewBox="0 0 384 512"> -->
<svg xmlns="http://www.w3.org/2000/svg" viewBox="0 0 384 512">
<!--! Font Awesome Pro 6.1.1 by @fontawesome - https://fontawesome.com License - https://fontawesome.com/license (Commercial License) Copyright 2022 Fonticons, Inc. -->
    <!-- <polygon points="50 3,100 28,100 75, 50 100,3 75,3 25" stroke="black" stroke-width="5" /> -->
<g>
    <path d="M86.60254037844386 0L173.20508075688772 50L173.20508075688772 150L86.60254037844386 200L0 150L0 50Z" stroke="black" stroke-width="5" fill='white' />
        <!-- <path d="M384 64.01c0 17.67-14.33 32-32 32h-128v352c0 17.67-14.33 31.99-32 31.99s-32-14.32-32-31.99v-352H32c-17.67 0-32-14.33-32-32s14.33-32 32-32h320C369.7 32.01 384 46.34 384 64.01z"/> -->
    <text width='1000' stroke="black" stroke-width="5" fill='black'>T</text>
</g>
</svg>